                    <svg width="33" height="29" viewBox="0 0 33 29" fill="none" xmlns="http://www.w3.org/2000/svg">
                        <g clip-path="url(#clip0_65_20)">
                        <path d="M16.5 14.5C18.1317 14.5 19.7267 14.0748 21.0835 13.2782C22.4402 12.4815 23.4976 11.3492 24.122 10.0245C24.7464 8.69969 24.9098 7.24196 24.5915 5.8356C24.2731 4.42924 23.4874 3.13741 22.3336 2.12348C21.1798 1.10955 19.7098 0.419053 18.1095 0.13931C16.5092 -0.140433 14.8504 0.00314132 13.3429 0.551877C11.8354 1.10061 10.5469 2.02986 9.64038 3.22212C8.73385 4.41437 8.25 5.81609 8.25 7.25C8.25218 9.17223 9.12208 11.0152 10.6688 12.3744C12.2155 13.7336 14.3126 14.4981 16.5 14.5ZM16.5 2.41667C17.5878 2.41667 18.6512 2.70014 19.5556 3.23123C20.4601 3.76233 21.1651 4.51719 21.5813 5.40037C21.9976 6.28354 22.1065 7.25536 21.8943 8.19294C21.6821 9.13051 21.1583 9.99173 20.3891 10.6677C19.6199 11.3436 18.6399 11.804 17.573 11.9905C16.5061 12.177 15.4002 12.0812 14.3952 11.7154C13.3902 11.3496 12.5313 10.7301 11.9269 9.93526C11.3226 9.14042 11 8.20594 11 7.25C11 5.96812 11.5795 4.73875 12.6109 3.83232C13.6424 2.92589 15.0413 2.41667 16.5 2.41667V2.41667Z" fill="black"/>
                        <path d="M16.5 16.9167C13.2191 16.9199 10.0735 18.0667 7.75357 20.1054C5.4336 22.1442 4.12864 24.9084 4.125 27.7917C4.125 28.1122 4.26987 28.4195 4.52773 28.6461C4.78559 28.8727 5.13533 29 5.5 29C5.86467 29 6.21441 28.8727 6.47227 28.6461C6.73013 28.4195 6.875 28.1122 6.875 27.7917C6.875 25.5484 7.88906 23.397 9.6941 21.8107C11.4991 20.2245 13.9473 19.3334 16.5 19.3334C19.0527 19.3334 21.5009 20.2245 23.3059 21.8107C25.1109 23.397 26.125 25.5484 26.125 27.7917C26.125 28.1122 26.2699 28.4195 26.5277 28.6461C26.7856 28.8727 27.1353 29 27.5 29C27.8647 29 28.2144 28.8727 28.4723 28.6461C28.7301 28.4195 28.875 28.1122 28.875 27.7917C28.8714 24.9084 27.5664 22.1442 25.2464 20.1054C22.9265 18.0667 19.7809 16.9199 16.5 16.9167V16.9167Z" fill="black"/>
                        </g>
                        <defs>
                        <clipPath id="clip0_65_20">
                        <rect width="33" height="29" fill="white"/>
                        </clipPath>
                        </defs>
                        </svg>