                    <svg width="55" height="55" viewBox="0 0 55 55" fill="none" xmlns="http://www.w3.org/2000/svg">
                        <path d="M0 27.5C0 12.3122 12.3122 0 27.5 0C42.6878 0 55 12.3122 55 27.5C55 42.6878 42.6878 55 27.5 55C12.3122 55 0 42.6878 0 27.5Z" fill="white"/>
                        <g clip-path="url(#clip0_65_30)">
                        <path d="M27.5 27.5C29.4284 27.5 31.3134 26.9282 32.9168 25.8568C34.5202 24.7855 35.7699 23.2627 36.5078 21.4812C37.2458 19.6996 37.4389 17.7392 37.0627 15.8479C36.6864 13.9566 35.7579 12.2193 34.3943 10.8557C33.0307 9.49215 31.2934 8.56355 29.4021 8.18735C27.5108 7.81114 25.5504 8.00422 23.7688 8.74218C21.9873 9.48013 20.4645 10.7298 19.3932 12.3332C18.3218 13.9366 17.75 15.8216 17.75 17.75C17.7526 20.3351 18.7806 22.8135 20.6086 24.6414C22.4365 26.4694 24.9149 27.4974 27.5 27.5ZM27.5 11.25C28.7856 11.25 30.0423 11.6312 31.1112 12.3455C32.1801 13.0597 33.0132 14.0748 33.5052 15.2626C33.9972 16.4503 34.1259 17.7572 33.8751 19.0181C33.6243 20.279 33.0052 21.4372 32.0962 22.3462C31.1872 23.2552 30.029 23.8743 28.7681 24.1251C27.5072 24.3759 26.2003 24.2472 25.0126 23.7552C23.8248 23.2633 22.8097 22.4301 22.0954 21.3612C21.3812 20.2923 21 19.0356 21 17.75C21 16.0261 21.6848 14.3728 22.9038 13.1538C24.1228 11.9348 25.7761 11.25 27.5 11.25Z" fill="black"/>
                        <path d="M27.5 30.75C23.6225 30.7543 19.9051 32.2965 17.1633 35.0383C14.4215 37.7801 12.8793 41.4975 12.875 45.375C12.875 45.806 13.0462 46.2193 13.351 46.524C13.6557 46.8288 14.069 47 14.5 47C14.931 47 15.3443 46.8288 15.649 46.524C15.9538 46.2193 16.125 45.806 16.125 45.375C16.125 42.3582 17.3234 39.4649 19.4567 37.3317C21.5899 35.1984 24.4832 34 27.5 34C30.5168 34 33.4101 35.1984 35.5433 37.3317C37.6766 39.4649 38.875 42.3582 38.875 45.375C38.875 45.806 39.0462 46.2193 39.3509 46.524C39.6557 46.8288 40.069 47 40.5 47C40.931 47 41.3443 46.8288 41.649 46.524C41.9538 46.2193 42.125 45.806 42.125 45.375C42.1207 41.4975 40.5785 37.7801 37.8367 35.0383C35.0949 32.2965 31.3775 30.7543 27.5 30.75Z" fill="black"/>
                        </g>
                        <path d="M27.5 54C12.8645 54 1 42.1355 1 27.5H-1C-1 43.2401 11.7599 56 27.5 56V54ZM54 27.5C54 42.1355 42.1355 54 27.5 54V56C43.2401 56 56 43.2401 56 27.5H54ZM27.5 1C42.1355 1 54 12.8645 54 27.5H56C56 11.7599 43.2401 -1 27.5 -1V1ZM27.5 -1C11.7599 -1 -1 11.7599 -1 27.5H1C1 12.8645 12.8645 1 27.5 1V-1Z" fill="#FF5C00"/>
                        <defs>
                        <clipPath id="clip0_65_30">
                        <rect width="40" height="40" fill="white" transform="translate(8 8)"/>
                        </clipPath>
                        </defs>
                    </svg>