<svg width="81" height="81" viewBox="0 0 81 81" fill="none" xmlns="http://www.w3.org/2000/svg">
<path d="M0 40.5C0 18.1325 18.1325 0 40.5 0V0C62.8675 0 81 18.1325 81 40.5V40.5C81 62.8675 62.8675 81 40.5 81V81C18.1325 81 0 62.8675 0 40.5V40.5Z" fill="white"/>
<g clip-path="url(#clip0_73_76)">
<path d="M40.5 40.5C44.1095 40.5 47.638 39.5176 50.6392 37.6771C53.6404 35.8366 55.9795 33.2206 57.3608 30.16C58.7421 27.0993 59.1035 23.7314 58.3993 20.4822C57.6951 17.2331 55.957 14.2485 53.4047 11.906C50.8524 9.56344 47.6005 7.96816 44.0604 7.32185C40.5202 6.67555 36.8508 7.00726 33.516 8.27503C30.1813 9.54279 27.331 11.6897 25.3257 14.4442C23.3203 17.1987 22.25 20.4372 22.25 23.75C22.2548 28.191 24.1791 32.4489 27.6006 35.5892C31.0221 38.7294 35.6613 40.4956 40.5 40.5ZM40.5 12.5833C42.9063 12.5833 45.2586 13.2383 47.2594 14.4653C49.2602 15.6923 50.8197 17.4363 51.7405 19.4767C52.6614 21.5172 52.9023 23.7624 52.4329 25.9285C51.9634 28.0946 50.8047 30.0844 49.1031 31.646C47.4016 33.2077 45.2337 34.2712 42.8736 34.7021C40.5135 35.133 38.0672 34.9118 35.844 34.0667C33.6208 33.2215 31.7207 31.7902 30.3838 29.9539C29.0469 28.1175 28.3333 25.9586 28.3333 23.75C28.3333 20.7884 29.6152 17.9481 31.8969 15.854C34.1786 13.7598 37.2732 12.5833 40.5 12.5833V12.5833Z" fill="black"/>
<path d="M40.5 46.0833C33.2422 46.0907 26.2839 48.7402 21.1518 53.4504C16.0198 58.1607 13.1331 64.547 13.125 71.2083C13.125 71.9487 13.4455 72.6588 14.0159 73.1824C14.5863 73.7059 15.36 74 16.1667 74C16.9734 74 17.747 73.7059 18.3174 73.1824C18.8879 72.6588 19.2083 71.9487 19.2083 71.2083C19.2083 66.0256 21.4516 61.0551 25.4445 57.3903C29.4375 53.7255 34.8531 51.6667 40.5 51.6667C46.1469 51.6667 51.5625 53.7255 55.5555 57.3903C59.5484 61.0551 61.7917 66.0256 61.7917 71.2083C61.7917 71.9487 62.1121 72.6588 62.6825 73.1824C63.253 73.7059 64.0266 74 64.8333 74C65.64 74 66.4137 73.7059 66.9841 73.1824C67.5545 72.6588 67.875 71.9487 67.875 71.2083C67.8669 64.547 64.9802 58.1607 59.8482 53.4504C54.7161 48.7402 47.7578 46.0907 40.5 46.0833V46.0833Z" fill="black"/>
</g>
<path d="M40.5 80C18.6848 80 1 62.3152 1 40.5H-1C-1 63.4198 17.5802 82 40.5 82V80ZM80 40.5C80 62.3152 62.3152 80 40.5 80V82C63.4198 82 82 63.4198 82 40.5H80ZM40.5 1C62.3152 1 80 18.6848 80 40.5H82C82 17.5802 63.4198 -1 40.5 -1V1ZM40.5 -1C17.5802 -1 -1 17.5802 -1 40.5H1C1 18.6848 18.6848 1 40.5 1V-1Z" fill="#FF5C00"/>
<defs>
<clipPath id="clip0_73_76">
<rect width="73" height="67" fill="white" transform="translate(4 7)"/>
</clipPath>
</defs>
</svg>

